<svg width="437" height="128" viewBox="0 0 437 128" fill="none" xmlns="http://www.w3.org/2000/svg">
<path d="M95.545 96V34L123.412 72.4L150.745 34V96H143.145V68.2667C143.145 66.4444 143.167 64.4667 143.212 62.3333C143.256 60.1556 143.412 57.6889 143.678 54.9333C142.301 57.3778 140.945 59.5333 139.612 61.4C138.323 63.2222 137.145 64.9111 136.078 66.4667L123.145 84.8L109.812 66.4667C108.701 64.9111 107.501 63.2222 106.212 61.4C104.967 59.5333 103.634 57.3778 102.212 54.9333C102.478 57.6889 102.634 60.1556 102.678 62.3333C102.723 64.4667 102.745 66.4444 102.745 68.2667V96H95.545ZM265.242 96.5333C261.598 96.5333 258.264 95.6222 255.242 93.8C252.22 91.9333 249.798 89.4444 247.975 86.3333C246.198 83.2222 245.309 79.7778 245.309 76C245.309 72.2222 246.198 68.7778 247.975 65.6667C249.798 62.5556 252.22 60.0889 255.242 58.2667C258.264 56.4 261.598 55.4667 265.242 55.4667C267.864 55.4667 270.331 55.9333 272.642 56.8667C274.953 57.8 276.998 59.0889 278.775 60.7333V32H285.975V96H279.309V90.7333C277.531 92.5111 275.42 93.9333 272.975 95C270.575 96.0222 267.998 96.5333 265.242 96.5333ZM266.175 90C268.709 90 270.998 89.3778 273.042 88.1333C275.131 86.8444 276.775 85.1556 277.975 83.0667C279.22 80.9333 279.842 78.5778 279.842 76C279.842 73.4222 279.22 71.0889 277.975 69C276.775 66.8667 275.131 65.1778 273.042 63.9333C270.998 62.6444 268.709 62 266.175 62C263.642 62 261.331 62.6444 259.242 63.9333C257.198 65.1778 255.553 66.8667 254.309 69C253.109 71.0889 252.509 73.4222 252.509 76C252.509 78.5778 253.109 80.9333 254.309 83.0667C255.553 85.1556 257.198 86.8444 259.242 88.1333C261.331 89.3778 263.642 90 266.175 90ZM295.854 96V32H303.054V96H295.854ZM311.276 116L324.276 90.1333L307.342 56H315.476L324.009 73.3333C324.765 74.8889 325.498 76.4222 326.209 77.9333C326.92 79.4444 327.631 81.2667 328.342 83.4C329.098 81.2667 329.809 79.4444 330.476 77.9333C331.187 76.3778 331.942 74.8444 332.742 73.3333L341.409 56H349.076L319.076 116H311.276Z" fill="#343434"/>
<path d="M180.074 96.8C176.208 96.8 172.674 95.8667 169.474 94C166.274 92.1333 163.719 89.6222 161.808 86.4667C159.941 83.3111 159.008 79.8222 159.008 76C159.008 72.1333 159.941 68.6444 161.808 65.5333C163.719 62.3778 166.274 59.8667 169.474 58C172.674 56.1333 176.208 55.2 180.074 55.2C183.985 55.2 187.519 56.1333 190.674 58C193.874 59.8667 196.408 62.3778 198.274 65.5333C200.185 68.6444 201.141 72.1333 201.141 76C201.141 79.8222 200.185 83.3111 198.274 86.4667C196.408 89.6222 193.874 92.1333 190.674 94C187.519 95.8667 183.985 96.8 180.074 96.8ZM180.074 90C182.652 90 184.985 89.3778 187.074 88.1333C189.163 86.8444 190.83 85.1556 192.074 83.0667C193.319 80.9333 193.941 78.5778 193.941 76C193.941 73.4222 193.319 71.0889 192.074 69C190.83 66.8667 189.163 65.1778 187.074 63.9333C184.985 62.6444 182.652 62 180.074 62C177.496 62 175.163 62.6444 173.074 63.9333C170.985 65.1778 169.319 66.8667 168.074 69C166.83 71.0889 166.208 73.4222 166.208 76C166.208 78.5778 166.83 80.9333 168.074 83.0667C169.319 85.1556 170.985 86.8444 173.074 88.1333C175.163 89.3778 177.496 90 180.074 90ZM215.947 96.8C212.08 96.8 208.547 95.8667 205.347 94C202.147 92.1333 199.591 89.6222 197.68 86.4667C195.813 83.3111 194.88 79.8222 194.88 76C194.88 72.1333 195.813 68.6444 197.68 65.5333C199.591 62.3778 202.147 59.8667 205.347 58C208.547 56.1333 212.08 55.2 215.947 55.2C219.858 55.2 223.391 56.1333 226.547 58C229.747 59.8667 232.28 62.3778 234.147 65.5333C236.058 68.6444 237.013 72.1333 237.013 76C237.013 79.8222 236.058 83.3111 234.147 86.4667C232.28 89.6222 229.747 92.1333 226.547 94C223.391 95.8667 219.858 96.8 215.947 96.8ZM215.947 90C218.524 90 220.858 89.3778 222.947 88.1333C225.036 86.8444 226.702 85.1556 227.947 83.0667C229.191 80.9333 229.813 78.5778 229.813 76C229.813 73.4222 229.191 71.0889 227.947 69C226.702 66.8667 225.036 65.1778 222.947 63.9333C220.858 62.6444 218.524 62 215.947 62C213.369 62 211.036 62.6444 208.947 63.9333C206.858 65.1778 205.191 66.8667 203.947 69C202.702 71.0889 202.08 73.4222 202.08 76C202.08 78.5778 202.702 80.9333 203.947 83.0667C205.191 85.1556 206.858 86.8444 208.947 88.1333C211.036 89.3778 213.369 90 215.947 90Z" fill="#343434"/>
<path fill-rule="evenodd" clip-rule="evenodd" d="M312 102.088V102H95V108H308.924L312 102.088Z" fill="url(#paint0_linear_270_1147)"/>
<defs>
<linearGradient id="paint0_linear_270_1147" x1="95" y1="105" x2="312" y2="105" gradientUnits="userSpaceOnUse">
<stop stop-color="#90D6AF"/>
<stop offset="0.25" stop-color="#F0F483"/>
<stop offset="0.5" stop-color="#FFAC5E"/>
<stop offset="0.75" stop-color="#FF6F6F"/>
<stop offset="1" stop-color="#C98BFF"/>
</linearGradient>
</defs>
</svg>
